<svg width="27" height="26" viewBox="0 0 27 26" fill="none" xmlns="http://www.w3.org/2000/svg">
<path d="M25.05 23.3586L24.7648 23.1015C23.9556 22.3651 23.2473 21.5206 22.6591 20.5908C22.0167 19.3076 21.6316 17.9063 21.5266 16.4691V12.236C21.5232 11.7219 21.4783 11.2088 21.3923 10.7022C19.9713 10.4038 18.6948 9.61309 17.7791 8.46378C16.8633 7.31448 16.3645 5.87725 16.3672 4.39542V3.85557C15.4913 3.41529 14.5502 3.12576 13.5819 2.99867V1.91898C13.5819 1.61559 13.4639 1.32462 13.2539 1.11008C13.0439 0.895548 12.759 0.775024 12.462 0.775024C12.1649 0.775024 11.8801 0.895548 11.67 1.11008C11.46 1.32462 11.342 1.61559 11.342 1.91898V3.04152C9.17397 3.3539 7.18979 4.4569 5.75577 6.14686C4.32175 7.83683 3.53472 9.99965 3.53998 12.236V16.4691C3.43491 17.9063 3.04986 19.3076 2.40743 20.5908C1.82931 21.5183 1.13243 22.3626 0.335284 23.1015L0.0500488 23.3586V25.775H25.05V23.3586Z" fill="#D6775A"/>
<path d="M22 10C24.7614 10 27 7.76142 27 5C27 2.23858 24.7614 0 22 0C19.2386 0 17 2.23858 17 5C17 7.76142 19.2386 10 22 10Z" fill="#D6775A"/>
</svg>
